<?xml version="1.0" encoding="UTF-8" standalone="no"?>
<!-- Created with Inkscape (http://www.inkscape.org/) -->

<svg
   height="59.253815"
   id="Andysvg"
   inkscape:version="1.4.2 (2aeb623e1d, 2025-05-12)"
   sodipodi:docname="computer-firefox.svg"
   sodipodi:version="0.32"
   version="1.0"
   width="65.414536"
   x="0.00000000"
   y="0.00000000"
   inkscape:output_extension="org.inkscape.output.svg.inkscape"
   xml:space="preserve"
   xmlns:inkscape="http://www.inkscape.org/namespaces/inkscape"
   xmlns:sodipodi="http://sodipodi.sourceforge.net/DTD/sodipodi-0.dtd"
   xmlns:xlink="http://www.w3.org/1999/xlink"
   xmlns="http://www.w3.org/2000/svg"
   xmlns:svg="http://www.w3.org/2000/svg"
   xmlns:rdf="http://www.w3.org/1999/02/22-rdf-syntax-ns#"
   xmlns:cc="http://creativecommons.org/ns#"
   xmlns:dc="http://purl.org/dc/elements/1.1/"><metadata
     id="metadata3"><rdf:RDF><cc:Work
         rdf:about=""><dc:description /><dc:subject><rdf:Bag><rdf:li>hash</rdf:li><rdf:li /><rdf:li>hardware</rdf:li><rdf:li>computer</rdf:li></rdf:Bag></dc:subject><dc:publisher><cc:Agent
             rdf:about="http://www.openclipart.org"><dc:title>Andy Fitzsimon</dc:title></cc:Agent></dc:publisher><dc:creator><cc:Agent><dc:title>Andy Fitzsimon</dc:title></cc:Agent></dc:creator><dc:rights><cc:Agent><dc:title>Andy Fitzsimon</dc:title></cc:Agent></dc:rights><dc:date /><dc:format>image/svg+xml</dc:format><dc:type
           rdf:resource="http://purl.org/dc/dcmitype/StillImage" /><cc:license
           rdf:resource="http://web.resource.org/cc/PublicDomain" /><dc:language>en</dc:language></cc:Work><cc:License
         rdf:about="http://web.resource.org/cc/PublicDomain"><cc:permits
           rdf:resource="http://web.resource.org/cc/Reproduction" /><cc:permits
           rdf:resource="http://web.resource.org/cc/Distribution" /><cc:permits
           rdf:resource="http://web.resource.org/cc/DerivativeWorks" /></cc:License></rdf:RDF></metadata><defs
     id="defs3"><linearGradient
       id="linearGradient1806"><stop
         id="stop1807"
         offset="0.0000000"
         style="stop-color:#000000;stop-opacity:0.35051546;" /><stop
         id="stop3276"
         offset="0.64999998"
         style="stop-color:#000000;stop-opacity:0.13402061;" /><stop
         id="stop1808"
         offset="1.0000000"
         style="stop-color:#000000;stop-opacity:0.0000000;" /></linearGradient><radialGradient
       cx="42.007256"
       cy="39.007645"
       fx="42.280807"
       fy="39.410465"
       id="radialGradient1977"
       r="11.574221"
       xlink:href="#linearGradient1806"
       gradientUnits="userSpaceOnUse" /><linearGradient
       id="linearGradient893"><stop
         id="stop895"
         offset="0"
         style="stop-color:#000;stop-opacity:1;" /><stop
         id="stop896"
         offset="1"
         style="stop-color:#fff;stop-opacity:1;" /></linearGradient><linearGradient
       id="linearGradient1317"><stop
         id="stop1318"
         offset="0.00000000"
         style="stop-color:#000000;stop-opacity:0.52892560;" /><stop
         id="stop1320"
         offset="0.50000000"
         style="stop-color:#000000;stop-opacity:0.17355372;" /><stop
         id="stop1319"
         offset="1.0000000"
         style="stop-color:#000000;stop-opacity:0.00000000;" /></linearGradient><linearGradient
       id="linearGradient1133"><stop
         id="stop1134"
         offset="0.00000000"
         style="stop-color:#8bb7df;stop-opacity:1.0000000;" /><stop
         id="stop1136"
         offset="0.76209301"
         style="stop-color:#2a6092;stop-opacity:1.0000000;" /><stop
         id="stop1135"
         offset="1.0000000"
         style="stop-color:#375e82;stop-opacity:1.0000000;" /></linearGradient><linearGradient
       id="linearGradient1098"><stop
         id="stop1099"
         offset="0.00000000"
         style="stop-color:#ffffff;stop-opacity:1.0000000;" /><stop
         id="stop1101"
         offset="0.50000000"
         style="stop-color:#ffffff;stop-opacity:0.22314049;" /><stop
         id="stop1102"
         offset="0.59930235"
         style="stop-color:#ffffff;stop-opacity:0.00000000;" /><stop
         id="stop1100"
         offset="1.0000000"
         style="stop-color:#ffffff;stop-opacity:0.60330576;" /></linearGradient><linearGradient
       id="linearGradient902"><stop
         id="stop903"
         offset="0.00000000"
         style="stop-color:#000000;stop-opacity:0.00000000;" /><stop
         id="stop904"
         offset="1.0000000"
         style="stop-color:#000000;stop-opacity:0.22000000;" /></linearGradient><linearGradient
       id="linearGradient892"><stop
         id="stop893"
         offset="0.00000000"
         style="stop-color:#ffffff;stop-opacity:0.00000000;" /><stop
         id="stop894"
         offset="1"
         style="stop-color:#fff;stop-opacity:1;" /></linearGradient><linearGradient
       id="linearGradient888"><stop
         id="stop889"
         offset="0.0000000"
         style="stop-color:#626262;stop-opacity:1.0000000;" /><stop
         id="stop890"
         offset="1"
         style="stop-color:#fff;stop-opacity:1;" /></linearGradient><linearGradient
       id="linearGradient891"
       x1="92.437965"
       x2="27.674332"
       xlink:href="#linearGradient888"
       y1="-3.9104078"
       y2="91.076988"
       gradientTransform="matrix(0.8184166,0,0,0.530237,-9.8827678,-14.589608)"
       gradientUnits="userSpaceOnUse" /><linearGradient
       id="linearGradient901"
       xlink:href="#linearGradient1806"
       gradientTransform="matrix(0.8517959,0,0,0.5754549,70.875335,-17.351492)"
       x1="9.4921856"
       y1="22.862282"
       x2="41.719688"
       y2="22.862282"
       gradientUnits="userSpaceOnUse" /><linearGradient
       id="linearGradient905"
       x1="-77.726181"
       x2="95.64444"
       xlink:href="#linearGradient888"
       y1="208.43991"
       y2="11.699047"
       gradientTransform="matrix(0.7314635,0,0,0.5932693,-9.8827694,-14.589616)"
       gradientUnits="userSpaceOnUse" /><radialGradient
       cx="60.004654"
       cy="56.485935"
       fx="72.10788"
       fy="39.288475"
       id="radialGradient1132"
       r="68.589226"
       xlink:href="#linearGradient1133"
       gradientTransform="matrix(0.8184166,0,0,0.530237,-9.8827678,-14.589608)"
       gradientUnits="userSpaceOnUse" /><linearGradient
       id="linearGradient1138"
       x1="-249.72067"
       x2="-268.25406"
       xlink:href="#linearGradient1806"
       y1="375.922"
       y2="75.912529"
       gradientTransform="scale(1.087146,0.91984)"
       gradientUnits="userSpaceOnUse" /><linearGradient
       id="linearGradient1140"
       x1="45.685757"
       x2="41.96706"
       xlink:href="#linearGradient888"
       y1="110.4447"
       y2="232.24953"
       gradientTransform="matrix(1.2743811,0,0,0.3405213,-9.8827694,-14.589616)"
       gradientUnits="userSpaceOnUse" /><linearGradient
       id="linearGradient1141"
       x1="0"
       x2="0.92957747"
       xlink:href="#linearGradient888"
       y1="3.3012049"
       y2="-0.45783132" /><linearGradient
       id="linearGradient1144"
       x1="31.449743"
       x2="31.617281"
       xlink:href="#linearGradient892"
       y1="203.49899"
       y2="251.21892"
       gradientTransform="matrix(1.4044089,0,0,0.3089952,-9.8827694,-14.589616)"
       gradientUnits="userSpaceOnUse" /><linearGradient
       id="linearGradient1146"
       x1="39.810947"
       x2="17.87653"
       xlink:href="#linearGradient892"
       y1="90.197021"
       y2="113.71949"
       gradientTransform="matrix(0.8811179,0,0,0.4925045,-9.8827694,-14.589616)"
       gradientUnits="userSpaceOnUse" /><linearGradient
       id="linearGradient1148"
       x1="39.690613"
       x2="70.224304"
       xlink:href="#linearGradient892"
       y1="49.507656"
       y2="20.481863"
       gradientTransform="scale(1.329144,0.752364)"
       gradientUnits="userSpaceOnUse" /><linearGradient
       id="linearGradient1150"
       x1="35.190361"
       x2="8.3460579"
       xlink:href="#linearGradient892"
       y1="76.277557"
       y2="105.42543"
       gradientTransform="scale(1.328386,0.752793)"
       gradientUnits="userSpaceOnUse" /><linearGradient
       id="linearGradient1156"
       x1="25.220816"
       x2="25.220816"
       xlink:href="#linearGradient888"
       y1="178.48862"
       y2="234.26866"
       gradientTransform="matrix(1.6156202,0,0,0.2685999,-9.8827678,-14.589608)"
       gradientUnits="userSpaceOnUse" /><linearGradient
       id="linearGradient1157"
       x1="51.46093"
       x2="-16.224497"
       xlink:href="#linearGradient888"
       y1="269.85831"
       y2="176.28694"
       gradientTransform="matrix(1.6156202,0,0,0.2685999,-9.8827678,-14.589608)"
       gradientUnits="userSpaceOnUse" /><linearGradient
       id="linearGradient1166"
       x1="111.49758"
       x2="107.04918"
       xlink:href="#linearGradient1317"
       y1="131.25249"
       y2="148.78619"
       gradientTransform="matrix(0.562951,0,0,0.378005,1.021178,-9.426161)"
       gradientUnits="userSpaceOnUse" /><linearGradient
       id="linearGradient1167"
       x1="141.60217"
       x2="88.447014"
       xlink:href="#linearGradient888"
       y1="228.39311"
       y2="133.5471"
       gradientTransform="matrix(0.544555,0,0,0.390775,1.021178,-9.426161)"
       gradientUnits="userSpaceOnUse" /><linearGradient
       id="linearGradient1169"
       x1="146.69923"
       x2="74.533691"
       xlink:href="#linearGradient893"
       y1="224.57898"
       y2="81.4776"
       gradientTransform="matrix(0.546024,0,0,0.389723,1.021178,-9.426161)"
       gradientUnits="userSpaceOnUse" /><linearGradient
       gradientTransform="scale(0.998371,1.001632)"
       id="linearGradient1170"
       x1="0.47284532"
       x2="0.48655096"
       xlink:href="#linearGradient902"
       y1="-0.016295359"
       y2="1.8378206" /><linearGradient
       id="linearGradient1171"
       x1="101.10657"
       x2="95.100159"
       xlink:href="#linearGradient902"
       y1="177.77768"
       y2="173.03152"
       gradientTransform="matrix(0.62565,0,0,0.340123,1.021178,-9.426161)"
       gradientUnits="userSpaceOnUse" /><radialGradient
       cx="0.47887325"
       cy="0.53333336"
       fx="0.47535211"
       fy="0.26666668"
       id="radialGradient1315"
       r="0.41197181"
       xlink:href="#linearGradient1317" /><radialGradient
       cx="0.5"
       cy="0.50000006"
       fx="0.50352114"
       fy="0.18269235"
       id="radialGradient1316"
       r="0.34964636"
       xlink:href="#linearGradient1317" /><linearGradient
       id="linearGradient1404"
       x1="88.755692"
       x2="88.996956"
       xlink:href="#linearGradient892"
       y1="169.09755"
       y2="182.99155"
       gradientTransform="matrix(0.629979,0,0,0.337786,1.021178,-9.426161)"
       gradientUnits="userSpaceOnUse" /><linearGradient
       gradientTransform="scale(0.997825,1.00218)"
       id="linearGradient1505"
       x1="0.47157744"
       x2="0.48548824"
       xlink:href="#linearGradient902"
       y1="-0.02485317"
       y2="1.8570156" /><linearGradient
       gradientTransform="scale(0.995847,1.00417)"
       id="linearGradient1506"
       x1="0.4704251"
       x2="0.48481107"
       xlink:href="#linearGradient902"
       y1="-0.04365262"
       y2="1.9025002" /><linearGradient
       gradientTransform="scale(0.997153,1.002855)"
       id="linearGradient2740"
       x1="0.47041038"
       x2="0.48453596"
       xlink:href="#linearGradient902"
       y1="-0.033741195"
       y2="1.8771822" /><linearGradient
       id="linearGradient4283"
       x1="-0.77314812"
       x2="0.99074072"
       xlink:href="#linearGradient893"
       y1="2.0837989"
       y2="-0.033519555" /><linearGradient
       id="linearGradient4284"
       x1="-2.3960868e-17"
       x2="0.92957747"
       xlink:href="#linearGradient893"
       y1="3.3012049"
       y2="-0.45783132" /><linearGradient
       inkscape:collect="always"
       xlink:href="#linearGradient1806"
       id="linearGradient1948"
       gradientUnits="userSpaceOnUse"
       gradientTransform="scale(1.087146,0.91984)"
       x1="-249.72067"
       y1="375.922"
       x2="-268.25406"
       y2="75.912529" /><linearGradient
       inkscape:collect="always"
       xlink:href="#linearGradient1806"
       id="linearGradient1950"
       gradientUnits="userSpaceOnUse"
       gradientTransform="scale(1.087146,0.91984)"
       x1="-249.72067"
       y1="375.922"
       x2="-268.25406"
       y2="75.912529" /><linearGradient
       inkscape:collect="always"
       xlink:href="#linearGradient1806"
       id="linearGradient1952"
       gradientUnits="userSpaceOnUse"
       gradientTransform="scale(1.087146,0.91984)"
       x1="-249.72067"
       y1="375.922"
       x2="-268.25406"
       y2="75.912529" /><linearGradient
       inkscape:collect="always"
       xlink:href="#linearGradient892"
       id="linearGradient2625"
       gradientUnits="userSpaceOnUse"
       gradientTransform="scale(1.329144,0.752364)"
       x1="39.690613"
       y1="49.507656"
       x2="70.224304"
       y2="20.481863" /><linearGradient
       inkscape:collect="always"
       xlink:href="#linearGradient892"
       id="linearGradient2627"
       gradientUnits="userSpaceOnUse"
       gradientTransform="scale(1.328386,0.752793)"
       x1="35.190361"
       y1="76.277557"
       x2="8.3460579"
       y2="105.42543" /><linearGradient
       inkscape:collect="always"
       xlink:href="#linearGradient888"
       id="linearGradient2633"
       gradientUnits="userSpaceOnUse"
       gradientTransform="matrix(0.3870648,0,0,0.2694829,71.57581,-24.087318)"
       x1="92.437965"
       y1="-3.9104078"
       x2="27.674332"
       y2="91.076988" /><linearGradient
       inkscape:collect="always"
       xlink:href="#linearGradient892"
       id="linearGradient2635"
       gradientUnits="userSpaceOnUse"
       gradientTransform="matrix(0.8821916,0,0,0.491702,-8.9069314,-15.277305)"
       x1="39.690613"
       y1="49.507656"
       x2="70.224304"
       y2="20.481863" /><linearGradient
       inkscape:collect="always"
       xlink:href="#linearGradient892"
       id="linearGradient2637"
       gradientUnits="userSpaceOnUse"
       gradientTransform="matrix(0.8816883,0,0,0.4919824,-10.701684,-14.28309)"
       x1="35.190361"
       y1="76.277557"
       x2="8.3460579"
       y2="105.42543" /><radialGradient
       id="g"
       cx="240.61284"
       cy="36.806651"
       r="170.02094"
       gradientTransform="scale(0.99822767,1.0017755)"
       fx="240.61284"
       fy="36.806651"
       gradientUnits="userSpaceOnUse"><stop
         offset=".1"
         stop-color="#ffe226"
         id="stop1" /><stop
         offset=".79"
         stop-color="#ff7139"
         id="stop2" /></radialGradient><radialGradient
       id="c"
       cx="226.56298"
       cy="290.17784"
       r="554.14583"
       gradientTransform="scale(1.1087373,0.9019269)"
       fx="226.56298"
       fy="290.17784"
       gradientUnits="userSpaceOnUse"><stop
         offset=".3"
         stop-color="#960e18"
         id="stop3" /><stop
         offset=".35"
         stop-color="#b11927"
         stop-opacity=".74"
         id="stop4" /><stop
         offset=".43"
         stop-color="#db293d"
         stop-opacity=".34"
         id="stop5" /><stop
         offset=".5"
         stop-color="#f5334b"
         stop-opacity=".09"
         id="stop6" /><stop
         offset=".53"
         stop-color="#ff3750"
         stop-opacity="0"
         id="stop7" /></radialGradient><radialGradient
       id="d"
       cx="395.44365"
       cy="-17.973478"
       r="210.2099"
       gradientTransform="scale(0.76747288,1.3029776)"
       fx="395.44365"
       fy="-17.973478"
       gradientUnits="userSpaceOnUse"><stop
         offset=".13"
         stop-color="#fff44f"
         id="stop8" /><stop
         offset=".53"
         stop-color="#ff980e"
         id="stop9" /></radialGradient><radialGradient
       id="e"
       cx="206.27053"
       cy="373.24011"
       r="223.49659"
       gradientTransform="scale(0.95519576,1.0469058)"
       fx="206.27053"
       fy="373.24011"
       gradientUnits="userSpaceOnUse"><stop
         offset=".35"
         stop-color="#3a8ee6"
         id="stop10" /><stop
         offset=".67"
         stop-color="#9059ff"
         id="stop11" /><stop
         offset="1"
         stop-color="#c139e6"
         id="stop12" /></radialGradient><radialGradient
       id="f"
       cx="271.62092"
       cy="200.9019"
       r="131.86298"
       gradientTransform="scale(0.95519576,1.0469058)"
       fx="271.62092"
       fy="200.9019"
       gradientUnits="userSpaceOnUse"><stop
         offset=".21"
         stop-color="#9059ff"
         stop-opacity="0"
         id="stop13" /><stop
         offset=".97"
         stop-color="#6e008b"
         stop-opacity=".6"
         id="stop14" /></radialGradient><radialGradient
       id="b"
       cx="392.80674"
       cy="61.159757"
       r="554.14583"
       gradientTransform="scale(1.1087373,0.9019269)"
       fx="392.80674"
       fy="61.159757"
       gradientUnits="userSpaceOnUse"><stop
         offset=".13"
         stop-color="#ffbd4f"
         id="stop15" /><stop
         offset=".28"
         stop-color="#ff980e"
         id="stop16" /><stop
         offset=".47"
         stop-color="#ff3750"
         id="stop17" /><stop
         offset=".78"
         stop-color="#eb0878"
         id="stop18" /><stop
         offset=".86"
         stop-color="#e50080"
         id="stop19" /></radialGradient><radialGradient
       id="h"
       cx="362.075"
       cy="-81.709216"
       r="742.38693"
       gradientTransform="scale(1.0914501,0.91621229)"
       fx="362.075"
       fy="-81.709216"
       gradientUnits="userSpaceOnUse"><stop
         offset=".11"
         stop-color="#fff44f"
         id="stop20" /><stop
         offset=".46"
         stop-color="#ff980e"
         id="stop21" /><stop
         offset=".72"
         stop-color="#ff3647"
         id="stop22" /><stop
         offset=".9"
         stop-color="#e31587"
         id="stop23" /></radialGradient><radialGradient
       id="i"
       cx="475.58807"
       cy="-41.588268"
       r="779.90861"
       gradientTransform="scale(0.68818401,1.4530997)"
       fx="475.58807"
       fy="-41.588268"
       gradientUnits="userSpaceOnUse"><stop
         offset="0"
         stop-color="#fff44f"
         id="stop24" /><stop
         offset=".3"
         stop-color="#ff980e"
         id="stop25" /><stop
         offset=".57"
         stop-color="#ff3647"
         id="stop26" /><stop
         offset=".74"
         stop-color="#e31587"
         id="stop27" /></radialGradient><radialGradient
       id="j"
       cx="239.79737"
       cy="99.00617"
       r="461.1138"
       gradientTransform="scale(1.008901,0.9911775)"
       fx="239.79737"
       fy="99.00617"
       gradientUnits="userSpaceOnUse"><stop
         offset=".14"
         stop-color="#fff44f"
         id="stop28" /><stop
         offset=".48"
         stop-color="#ff980e"
         id="stop29" /><stop
         offset=".66"
         stop-color="#ff3647"
         id="stop30" /><stop
         offset=".9"
         stop-color="#e31587"
         id="stop31" /></radialGradient><radialGradient
       id="k"
       cx="343.03801"
       cy="132.0125"
       r="528.89329"
       gradientTransform="scale(1.0572577,0.94584319)"
       fx="343.03801"
       fy="132.0125"
       gradientUnits="userSpaceOnUse"><stop
         offset=".09"
         stop-color="#fff44f"
         id="stop32" /><stop
         offset=".63"
         stop-color="#ff980e"
         id="stop33" /></radialGradient><linearGradient
       id="a"
       x1="441.98419"
       y1="75.63131"
       x2="62.126281"
       y2="454.26937"
       gradientTransform="scale(0.98374383,1.0165248)"
       gradientUnits="userSpaceOnUse"><stop
         offset=".05"
         stop-color="#fff44f"
         id="stop34" /><stop
         offset=".37"
         stop-color="#ff980e"
         id="stop35" /><stop
         offset=".53"
         stop-color="#ff3647"
         id="stop36" /><stop
         offset=".7"
         stop-color="#e31587"
         id="stop37" /></linearGradient><linearGradient
       id="l"
       x1="406.61137"
       y1="68.31199"
       x2="104.09252"
       y2="409.86551"
       gradientTransform="scale(0.98373973,1.016529)"
       gradientUnits="userSpaceOnUse"><stop
         offset=".17"
         stop-color="#fff44f"
         stop-opacity=".8"
         id="stop38" /><stop
         offset=".6"
         stop-color="#fff44f"
         stop-opacity="0"
         id="stop39" /></linearGradient></defs><sodipodi:namedview
     bordercolor="#666666"
     borderopacity="1.0"
     id="base"
     inkscape:cx="45.431611"
     inkscape:cy="4.3310291"
     inkscape:pageopacity="0.0"
     inkscape:pageshadow="2"
     inkscape:window-height="1371"
     inkscape:window-width="2494"
     inkscape:window-x="1986"
     inkscape:window-y="32"
     inkscape:zoom="5.6568542"
     pagecolor="#ffffff"
     showborder="true"
     inkscape:current-layer="layer2"
     inkscape:showpageshadow="2"
     inkscape:pagecheckerboard="0"
     inkscape:deskcolor="#d1d1d1"
     inkscape:window-maximized="1" /><rect
     height="5.4088969"
     id="rect1155"
     style="fill:url(#linearGradient1156);fill-opacity:1;fill-rule:evenodd;stroke:url(#linearGradient1157);stroke-width:0.95344429pt"
     width="38.405891"
     x="12.350429"
     y="36.575089" /><path
     d="M 0.19287398,54.885213 C -0.67386281,56.46268 1.5579198,59.253939 3.3933636,59.253939 L 62.069027,59.253939 C 63.628857,59.253939 65.976201,57.281205 65.269522,55.925378 L 58.655165,43.235277 C 58.145696,42.257819 57.005954,41.779036 55.881408,41.779036 L 8.9408812,41.779036 C 8.0135624,41.779036 7.0317541,42.438291 6.5938539,43.235277 L 0.19287398,54.885213 z "
     id="path1139"
     sodipodi:nodetypes="czzzzzzzz"
     style="fill:url(#linearGradient1140);fill-opacity:1;fill-rule:evenodd;stroke-width:1.44734821pt" /><rect
     height="39.110481"
     id="rect1137"
     rx="3.6272225"
     ry="3.536587"
     style="fill:url(#linearGradient905);fill-opacity:1;fill-rule:evenodd;stroke-width:1.62826681"
     width="48.220726"
     x="7.4732022"
     y="-0.010164791" /><rect
     height="24.74659"
     id="rect1131"
     style="fill:url(#radialGradient1132);fill-opacity:1;fill-rule:evenodd;stroke:url(#linearGradient891);stroke-width:0.96503658pt"
     width="38.813015"
     x="12.390426"
     y="6.027596" /><path
     d="M 8.5906358,19.782157 L 8.3772707,34.032521 C 8.3432557,36.304242 9.6712558,37.75887 12.004493,37.777143 L 38.568566,37.985175 L 41.128957,32.160207 L 11.471076,31.952177 L 11.257713,19.678141 L 8.5906358,19.782157 z "
     id="path1145"
     sodipodi:nodetypes="czzccccc"
     style="fill:url(#linearGradient1146);fill-opacity:1;fill-rule:evenodd;stroke-width:1pt" /><path
     d="M 2.7205883,54.675124 C 2.1113822,55.866786 2.9089235,57.975349 4.9701318,57.975349 L 60.179981,57.975349 C 61.276346,57.975349 62.926231,56.48511 62.429524,55.460899 L 57.78047,45.874547 C 57.422369,45.136152 56.621274,44.774474 55.830865,44.774474 L 8.8693353,44.774468 C 8.2175462,44.774468 7.5274604,45.272486 7.2196723,45.874547 L 2.7205883,54.675124 z "
     id="path1143"
     sodipodi:nodetypes="czzzzzzzz"
     style="fill:url(#linearGradient1144);fill-opacity:1;fill-rule:evenodd;stroke-width:1pt" /><path
     d="M 19.010905,6.5904681 L 42.426675,6.2948726 C 46.041292,6.2492425 50.532134,9.8297185 50.532134,13.389152 L 50.532134,24.030571 L 18.710703,23.734975 L 19.010905,6.5904681 z "
     id="path1147"
     sodipodi:nodetypes="czzccc"
     style="fill:url(#linearGradient2635);fill-opacity:1;fill-rule:evenodd;stroke-width:1pt" /><path
     d="M 41.29338,29.915511 L 20.310226,29.977799 C 17.071125,29.987414 13.079277,26.740463 13.111035,23.55121 L 13.205982,14.016504 L 41.715336,14.556637 L 41.29338,29.915511 z "
     id="path1149"
     sodipodi:nodetypes="czzccc"
     style="fill:url(#linearGradient2637);fill-opacity:1;fill-rule:evenodd;stroke-width:1pt" /><g
     inkscape:groupmode="layer"
     id="layer2"
     inkscape:label="Layer 1"><g
       id="g1"
       transform="matrix(0.04394004,0,0,0.04394004,20.714863,7.38405)"><path
         d="m 478.711,166.353 c -10.445,-25.124 -31.6,-52.248 -48.212,-60.821 13.52,26.505 21.345,53.093 24.335,72.936 0,0.039 0.015,0.136 0.047,0.4 C 427.706,111.135 381.627,83.823 344,24.355 c -1.9,-3.007 -3.805,-6.022 -5.661,-9.2 a 73.716,73.716 0 0 1 -2.646,-4.972 43.7,43.7 0 0 1 -3.593,-9.506 0.626,0.626 0 0 0 -0.546,-0.644 0.818,0.818 0 0 0 -0.451,0 c -0.034,0.012 -0.084,0.051 -0.12,0.065 -0.053,0.021 -0.12,0.069 -0.176,0.1 0.027,-0.036 0.083,-0.117 0.1,-0.136 -60.37,35.356 -80.85,100.761 -82.732,133.484 a 120.249,120.249 0 0 0 -66.142,25.488 71.355,71.355 0 0 0 -6.225,-4.7 111.338,111.338 0 0 1 -0.674,-58.732 c -24.688,11.241 -43.89,29.01 -57.85,44.7 h -0.111 c -9.527,-12.067 -8.855,-51.873 -8.312,-60.184 -0.114,-0.515 -7.107,3.63 -8.023,4.255 a 175.073,175.073 0 0 0 -23.486,20.12 210.478,210.478 0 0 0 -22.442,26.913 c 0,0.012 -0.007,0.026 -0.011,0.038 0,-0.013 0.007,-0.026 0.011,-0.038 a 202.838,202.838 0 0 0 -32.247,72.805 c -0.115,0.521 -0.212,1.061 -0.324,1.586 -0.452,2.116 -2.08,12.7 -2.365,15 -0.022,0.177 -0.032,0.347 -0.053,0.524 a 229.066,229.066 0 0 0 -3.9,33.157 c 0,0.41 -0.025,0.816 -0.025,1.227 C 16,388.418 123.6,496 256.324,496 c 118.865,0 217.56,-86.288 236.882,-199.63 0.407,-3.076 0.733,-6.168 1.092,-9.271 4.777,-41.21 -0.53,-84.525 -15.587,-120.746 z M 201.716,354.447 c 1.124,0.537 2.18,1.124 3.334,1.639 0.048,0.033 0.114,0.07 0.163,0.1 a 126.191,126.191 0 0 1 -3.497,-1.739 z m 55.053,-144.93 z m 198.131,-30.59 -0.032,-0.233 c 0.012,0.085 0.027,0.174 0.04,0.259 z"
         fill="url(#a)"
         id="path39"
         style="fill:url(#a)" /><path
         d="m 478.711,166.353 c -10.445,-25.124 -31.6,-52.248 -48.212,-60.821 13.52,26.505 21.345,53.093 24.335,72.936 0,-0.058 0.011,0.048 0.036,0.226 0.012,0.085 0.027,0.174 0.04,0.259 22.675,61.47 10.322,123.978 -7.479,162.175 -27.539,59.1 -94.215,119.67 -198.576,116.716 C 136.1,454.651 36.766,370.988 18.223,261.41 c -3.379,-17.28 0,-26.054 1.7,-40.084 -2.071,10.816 -2.86,13.94 -3.9,33.157 0,0.41 -0.025,0.816 -0.025,1.227 C 16,388.418 123.6,496 256.324,496 c 118.865,0 217.56,-86.288 236.882,-199.63 0.407,-3.076 0.733,-6.168 1.092,-9.271 4.777,-41.21 -0.53,-84.525 -15.587,-120.746 z"
         fill="url(#b)"
         id="path40"
         style="fill:url(#b)" /><path
         d="m 478.711,166.353 c -10.445,-25.124 -31.6,-52.248 -48.212,-60.821 13.52,26.505 21.345,53.093 24.335,72.936 0,-0.058 0.011,0.048 0.036,0.226 0.012,0.085 0.027,0.174 0.04,0.259 22.675,61.47 10.322,123.978 -7.479,162.175 -27.539,59.1 -94.215,119.67 -198.576,116.716 C 136.1,454.651 36.766,370.988 18.223,261.41 c -3.379,-17.28 0,-26.054 1.7,-40.084 -2.071,10.816 -2.86,13.94 -3.9,33.157 0,0.41 -0.025,0.816 -0.025,1.227 C 16,388.418 123.6,496 256.324,496 c 118.865,0 217.56,-86.288 236.882,-199.63 0.407,-3.076 0.733,-6.168 1.092,-9.271 4.777,-41.21 -0.53,-84.525 -15.587,-120.746 z"
         fill="url(#c)"
         id="path41"
         style="fill:url(#c)" /><path
         d="m 361.922,194.6 c 0.524,0.368 1,0.734 1.493,1.1 a 130.706,130.706 0 0 0 -22.31,-29.112 C 266.4,91.892 321.516,4.626 330.811,0.194 c 0.027,-0.036 0.083,-0.117 0.1,-0.136 -60.37,35.356 -80.85,100.761 -82.732,133.484 2.8,-0.194 5.592,-0.429 8.442,-0.429 45.051,0 84.289,24.77 105.301,61.487 z"
         fill="url(#d)"
         id="path42"
         style="fill:url(#d)" /><path
         d="m 256.772,209.514 c -0.393,5.978 -21.514,26.593 -28.9,26.593 -68.339,0 -79.432,41.335 -79.432,41.335 3.027,34.81 27.261,63.475 56.611,78.643 1.339,0.692 2.694,1.317 4.05,1.935 a 132.768,132.768 0 0 0 7.059,2.886 106.743,106.743 0 0 0 31.271,6.031 c 119.78,5.618 142.986,-143.194 56.545,-186.408 22.137,-3.85 45.115,5.053 57.947,14.067 -21.012,-36.714 -60.25,-61.484 -105.3,-61.484 -2.85,0 -5.641,0.235 -8.442,0.429 a 120.249,120.249 0 0 0 -66.142,25.488 c 3.664,3.1 7.8,7.244 16.514,15.828 16.302,16.067 58.13,32.705 58.219,34.657 z"
         fill="url(#e)"
         id="path43"
         style="fill:url(#e)" /><path
         d="m 256.772,209.514 c -0.393,5.978 -21.514,26.593 -28.9,26.593 -68.339,0 -79.432,41.335 -79.432,41.335 3.027,34.81 27.261,63.475 56.611,78.643 1.339,0.692 2.694,1.317 4.05,1.935 a 132.768,132.768 0 0 0 7.059,2.886 106.743,106.743 0 0 0 31.271,6.031 c 119.78,5.618 142.986,-143.194 56.545,-186.408 22.137,-3.85 45.115,5.053 57.947,14.067 -21.012,-36.714 -60.25,-61.484 -105.3,-61.484 -2.85,0 -5.641,0.235 -8.442,0.429 a 120.249,120.249 0 0 0 -66.142,25.488 c 3.664,3.1 7.8,7.244 16.514,15.828 16.302,16.067 58.13,32.705 58.219,34.657 z"
         fill="url(#f)"
         id="path44"
         style="fill:url(#f)" /><path
         d="m 170.829,151.036 a 244.042,244.042 0 0 1 4.981,3.3 111.338,111.338 0 0 1 -0.674,-58.732 c -24.688,11.241 -43.89,29.01 -57.85,44.7 1.155,-0.033 36.014,-0.66 53.543,10.732 z"
         fill="url(#g)"
         id="path45"
         style="fill:url(#g)" /><path
         d="m 18.223,261.41 c 18.543,109.578 117.877,193.241 230.632,196.434 104.361,2.954 171.037,-57.62 198.576,-116.716 17.8,-38.2 30.154,-100.7 7.479,-162.175 l -0.008,-0.026 -0.032,-0.233 c -0.025,-0.178 -0.04,-0.284 -0.036,-0.226 0,0.039 0.015,0.136 0.047,0.4 8.524,55.661 -19.79,109.584 -64.051,146.044 l -0.133,0.313 c -86.245,70.223 -168.774,42.368 -185.484,30.966 a 144.108,144.108 0 0 1 -3.5,-1.743 c -50.282,-24.029 -71.054,-69.838 -66.6,-109.124 -42.457,0 -56.934,-35.809 -56.934,-35.809 0,0 38.119,-27.179 88.358,-3.541 46.53,21.893 90.228,3.543 90.233,3.541 -0.089,-1.952 -41.917,-18.59 -58.223,-34.656 -8.713,-8.584 -12.85,-12.723 -16.514,-15.828 a 71.355,71.355 0 0 0 -6.225,-4.7 282.929,282.929 0 0 0 -4.981,-3.3 c -17.528,-11.392 -52.388,-10.765 -53.543,-10.735 h -0.111 c -9.527,-12.067 -8.855,-51.873 -8.312,-60.184 -0.114,-0.515 -7.107,3.63 -8.023,4.255 a 175.073,175.073 0 0 0 -23.486,20.12 210.478,210.478 0 0 0 -22.442,26.919 c 0,0.012 -0.007,0.026 -0.011,0.038 0,-0.013 0.007,-0.026 0.011,-0.038 a 202.838,202.838 0 0 0 -32.247,72.805 c -0.115,0.521 -8.65,37.842 -4.44,57.199 z"
         fill="url(#h)"
         id="path46"
         style="fill:url(#h)" /><path
         d="m 341.105,166.587 a 130.706,130.706 0 0 1 22.31,29.112 c 1.323,0.994 2.559,1.985 3.608,2.952 54.482,50.2 25.936,121.2 23.807,126.26 44.261,-36.46 72.575,-90.383 64.051,-146.044 C 427.706,111.135 381.627,83.823 344,24.355 c -1.9,-3.007 -3.805,-6.022 -5.661,-9.2 a 73.716,73.716 0 0 1 -2.646,-4.972 43.7,43.7 0 0 1 -3.593,-9.506 0.626,0.626 0 0 0 -0.546,-0.644 0.818,0.818 0 0 0 -0.451,0 c -0.034,0.012 -0.084,0.051 -0.12,0.065 -0.053,0.021 -0.12,0.069 -0.176,0.1 -9.291,4.428 -64.407,91.694 10.298,166.389 z"
         fill="url(#i)"
         id="path47"
         style="fill:url(#i)" /><path
         d="m 367.023,198.651 c -1.049,-0.967 -2.285,-1.958 -3.608,-2.952 -0.489,-0.368 -0.969,-0.734 -1.493,-1.1 -12.832,-9.014 -35.81,-17.917 -57.947,-14.067 86.441,43.214 63.235,192.026 -56.545,186.408 a 106.743,106.743 0 0 1 -31.271,-6.031 134.51,134.51 0 0 1 -7.059,-2.886 c -1.356,-0.618 -2.711,-1.243 -4.05,-1.935 0.048,0.033 0.114,0.07 0.163,0.1 16.71,11.4 99.239,39.257 185.484,-30.966 l 0.133,-0.313 c 2.129,-5.054 30.675,-76.057 -23.807,-126.258 z"
         fill="url(#j)"
         id="path48"
         style="fill:url(#j)" /><path
         d="m 148.439,277.443 c 0,0 11.093,-41.335 79.432,-41.335 7.388,0 28.509,-20.615 28.9,-26.593 0.391,-5.978 -43.7,18.352 -90.233,-3.541 -50.239,-23.638 -88.358,3.541 -88.358,3.541 0,0 14.477,35.809 56.934,35.809 -4.453,39.286 16.319,85.1 66.6,109.124 1.124,0.537 2.18,1.124 3.334,1.639 -29.348,-15.169 -53.582,-43.834 -56.609,-78.644 z"
         fill="url(#k)"
         id="path49"
         style="fill:url(#k)" /><path
         d="m 478.711,166.353 c -10.445,-25.124 -31.6,-52.248 -48.212,-60.821 13.52,26.505 21.345,53.093 24.335,72.936 0,0.039 0.015,0.136 0.047,0.4 C 427.706,111.135 381.627,83.823 344,24.355 c -1.9,-3.007 -3.805,-6.022 -5.661,-9.2 a 73.716,73.716 0 0 1 -2.646,-4.972 43.7,43.7 0 0 1 -3.593,-9.506 0.626,0.626 0 0 0 -0.546,-0.644 0.818,0.818 0 0 0 -0.451,0 c -0.034,0.012 -0.084,0.051 -0.12,0.065 -0.053,0.021 -0.12,0.069 -0.176,0.1 0.027,-0.036 0.083,-0.117 0.1,-0.136 -60.37,35.356 -80.85,100.761 -82.732,133.484 2.8,-0.194 5.592,-0.429 8.442,-0.429 45.053,0 84.291,24.77 105.3,61.484 -12.832,-9.014 -35.81,-17.917 -57.947,-14.067 86.441,43.214 63.235,192.026 -56.545,186.408 a 106.743,106.743 0 0 1 -31.271,-6.031 134.51,134.51 0 0 1 -7.059,-2.886 c -1.356,-0.618 -2.711,-1.243 -4.05,-1.935 0.048,0.033 0.114,0.07 0.163,0.1 a 144.108,144.108 0 0 1 -3.5,-1.743 c 1.124,0.537 2.18,1.124 3.334,1.639 -29.35,-15.168 -53.584,-43.833 -56.611,-78.643 0,0 11.093,-41.335 79.432,-41.335 7.388,0 28.509,-20.615 28.9,-26.593 -0.089,-1.952 -41.917,-18.59 -58.223,-34.656 -8.713,-8.584 -12.85,-12.723 -16.514,-15.828 a 71.355,71.355 0 0 0 -6.225,-4.7 111.338,111.338 0 0 1 -0.674,-58.732 c -24.688,11.241 -43.89,29.01 -57.85,44.7 h -0.111 c -9.527,-12.067 -8.855,-51.873 -8.312,-60.184 -0.114,-0.515 -7.107,3.63 -8.023,4.255 A 175.073,175.073 0 0 0 77.345,104.49 210.478,210.478 0 0 0 54.91,131.406 c 0,0.012 -0.007,0.026 -0.011,0.038 0,-0.013 0.007,-0.026 0.011,-0.038 a 202.838,202.838 0 0 0 -32.247,72.805 c -0.115,0.521 -0.212,1.061 -0.324,1.586 -0.452,2.116 -2.486,12.853 -2.77,15.156 -0.022,0.177 0.021,-0.176 0,0 a 279.565,279.565 0 0 0 -3.544,33.53 c 0,0.41 -0.025,0.816 -0.025,1.227 C 16,388.418 123.6,496 256.324,496 c 118.865,0 217.56,-86.288 236.882,-199.63 0.407,-3.076 0.733,-6.168 1.092,-9.271 4.777,-41.21 -0.53,-84.525 -15.587,-120.746 z m -23.841,12.341 c 0.012,0.085 0.027,0.174 0.04,0.259 l -0.008,-0.026 z"
         fill="url(#l)"
         id="path50"
         style="fill:url(#l)" /></g></g></svg>
